# xmcd
#
# Track frame offsets: 
#        150
#        15917
#        50162
#        73800
#        91922
#        114712
#        131942
#        158217
#        179332
#
# Disc length: 2639 seconds
#
# Revision: 1
# Processed by: cddbd v1.5.2PL0 Copyright (c) Steve Scherf et al.
# Submitted via: ExactAudioCopy v1.0b1
#
DISCID=7c0a4d09
DTITLE=Mico Wave - Cookin' From The Inside Out !!!
DYEAR=1987
DGENRE=R&B
TTITLE0=Star Search
TTITLE1=Misunderstood
TTITLE2=First Impression
TTITLE3=It Happens Everytime
TTITLE4=Instant Replay
TTITLE5=Sleeping Single
TTITLE6=Can We Love Again
TTITLE7=American Dream
TTITLE8=Kiss
EXTD=
EXTT0=
EXTT1=
EXTT2=
EXTT3=
EXTT4=
EXTT5=
EXTT6=
EXTT7=
EXTT8=
PLAYORDER=
